<svg xmlns="http://www.w3.org/2000/svg" width="351" height="111.565" viewBox="0 0 351 111.565">
  <g id="Group_29" data-name="Group 29" transform="translate(-17 -955.559)">
    <g id="Group_8" data-name="Group 8" transform="translate(-101 443)">
      <g id="Group_6" data-name="Group 6" transform="translate(118 512.559)">
        <g id="Group_5" data-name="Group 5" transform="translate(0 0)">
          <path id="Union_1" data-name="Union 1" d="M71.167,104.884a53.443,53.443,0,0,1-5.558,1.555c.03.073.047.113.047.113l-.086-.1a53.892,53.892,0,1,1,26.377-14.5c2.5,8.927,8.613,19.615,8.613,19.615S82.772,104.568,71.167,104.884Z" fill="#fff"/>
        </g>
        <path id="Path_7" data-name="Path 7" d="M3484.753-1722.833l26.219,17.419,26.038-17.419,6.079,9.073-13.518,9.072,15.242,15.06L3540-1679.376l-19.506-19.506-9.526,5.9-10.161-5.9-19.052,19.506-4.9-10.978c0,.091,15.333-15.06,15.333-15.06l-13.518-8.346Z" transform="translate(-3457.016 1755.231)" fill="#8b37bc"/>
      </g>
    </g>
    <text id="Sandesh" transform="translate(139 1033)" fill="#f5f5f5" font-size="56" font-family="OpenSans-SemiBold, Open Sans" font-weight="600"><tspan x="0" y="0">Sandesh</tspan></text>
  </g>
</svg>
